<?xml version="1.0" standalone="no"?>
<!DOCTYPE svg PUBLIC "-//W3C//DTD SVG 20010904//EN"
 "http://www.w3.org/TR/2001/REC-SVG-20010904/DTD/svg10.dtd">
<svg version="1.0" xmlns="http://www.w3.org/2000/svg"
 width="700.000000pt" height="700.000000pt" viewBox="0 0 700.000000 700.000000"
 preserveAspectRatio="xMidYMid meet">
<metadata>
Created by potrace 1.11, written by Peter Selinger 2001-2013
</metadata>
<g transform="translate(0.000000,700.000000) scale(0.100000,-0.100000)"
fill="#000000" stroke="none">
<path d="M1023 6779 c-208 -25 -391 -178 -456 -384 l-22 -70 0 -2825 0 -2825
22 -70 c55 -176 199 -315 382 -369 49 -14 222 -16 1786 -16 1911 0 1767 -5
1900 62 78 40 183 145 223 223 64 128 65 135 70 544 2 205 1 393 -3 417 -12
85 -85 133 -156 104 -64 -27 -63 -22 -69 -475 l-5 -410 -28 -56 c-32 -66 -99
-132 -165 -162 l-47 -22 -1720 0 -1720 0 -47 22 c-66 30 -141 104 -169 166
l-24 52 0 2815 0 2815 24 52 c28 62 103 136 169 166 l47 22 1720 0 1720 0 56
-28 c66 -32 132 -99 162 -165 19 -42 22 -70 27 -272 6 -248 8 -257 70 -286 30
-15 39 -15 74 -3 21 8 49 27 60 42 20 27 21 41 21 250 -1 185 -4 232 -19 281
-57 189 -180 319 -362 383 l-79 28 -1685 1 c-927 1 -1717 -2 -1757 -7z"/>
<path d="M1153 6226 c-84 -38 -81 -167 4 -203 65 -27 126 1 153 71 32 86 -69
171 -157 132z"/>
<path d="M1583 6220 c-40 -24 -53 -48 -53 -100 0 -32 6 -48 29 -70 51 -52 111
-52 162 0 52 51 36 140 -31 175 -39 20 -69 19 -107 -5z"/>
<path d="M2023 6220 c-39 -23 -55 -52 -55 -96 0 -44 24 -81 67 -101 29 -14 41
-14 75 -4 97 29 107 168 15 207 -45 19 -64 18 -102 -6z"/>
<path d="M4087 5649 c-71 -10 -169 -56 -221 -103 l-39 -36 -40 36 c-22 20 -69
50 -106 68 -64 30 -70 31 -201 30 -74 0 -225 -10 -335 -22 -221 -25 -195 -22
-870 -92 -614 -63 -562 -55 -602 -95 l-33 -33 0 -1621 c0 -1766 -4 -1660 56
-1691 15 -8 48 -14 73 -13 25 1 363 36 751 78 388 41 842 89 1010 107 l305 31
915 -97 c503 -53 969 -103 1035 -110 134 -14 169 -9 206 30 l24 26 3 686 c2
502 -1 694 -9 715 -26 62 -114 89 -168 51 -51 -36 -51 -39 -51 -679 l0 -595
-26 0 c-25 0 -1700 174 -1782 185 l-42 6 2 1382 3 1382 25 43 c28 50 95 98
148 106 21 4 385 -30 844 -79 444 -47 811 -85 817 -85 7 0 11 -218 13 -679 3
-672 3 -680 24 -708 42 -56 122 -60 174 -8 l25 25 3 745 c3 810 4 783 -52 820
-25 17 -37 18 -731 90 -242 25 -478 50 -525 55 -47 5 -177 19 -290 30 -113 11
-221 22 -240 24 -19 2 -61 0 -93 -5z m-524 -230 c47 -13 102 -60 128 -110 19
-37 19 -72 19 -1418 l0 -1380 -32 -5 c-18 -3 -424 -46 -903 -96 -478 -49 -880
-92 -892 -94 l-23 -3 0 1472 0 1472 113 12 c355 40 1487 159 1517 160 19 0 52
-4 73 -10z"/>
<path d="M2493 5031 c-76 -19 -93 -58 -93 -205 l0 -114 -124 -4 c-201 -5 -205
-11 -205 -333 0 -322 4 -328 205 -333 l124 -4 0 -114 c0 -123 10 -159 52 -188
34 -24 533 -24 567 0 39 28 51 73 51 194 l0 110 110 0 c121 0 166 12 194 51
14 20 16 59 16 284 0 225 -2 264 -16 284 -28 39 -73 51 -194 51 l-110 0 0 110
c0 124 -12 168 -56 197 -25 16 -54 18 -259 20 -126 1 -245 -2 -262 -6z m347
-341 c0 -135 10 -169 60 -195 21 -11 61 -15 150 -15 l120 0 0 -105 0 -105
-120 0 c-89 0 -129 -4 -150 -15 -50 -26 -60 -60 -60 -195 l0 -120 -105 0 -105
0 0 115 c0 196 -19 215 -210 215 l-120 0 0 105 0 105 120 0 c190 0 210 20 210
214 l0 116 105 0 105 0 0 -120z"/>
<path d="M2337 3480 c-59 -47 -56 -143 7 -181 29 -18 55 -19 499 -19 420 0
472 2 497 17 59 35 69 122 19 172 l-31 31 -482 0 c-469 0 -484 -1 -509 -20z"/>
<path d="M2143 3056 c-86 -38 -87 -159 -2 -203 18 -9 116 -13 372 -13 392 0
401 1 433 68 15 32 15 41 3 76 -8 21 -27 49 -42 60 -27 20 -41 21 -380 23
-284 2 -358 0 -384 -11z"/>
<path d="M1234 5106 l-34 -34 2 -1687 3 -1687 33 -29 c26 -23 42 -29 77 -29
39 0 980 93 1779 175 131 14 251 25 266 25 l28 0 3 -83 c3 -71 8 -90 32 -125
15 -23 46 -54 69 -69 l41 -28 282 -3 281 -3 54 29 c79 41 112 97 118 202 4 72
7 80 25 80 11 0 467 -45 1012 -100 546 -55 1012 -100 1037 -100 52 0 85 21
104 66 21 50 21 3318 0 3368 -30 72 -119 90 -178 37 l-33 -29 -3 -1601 -2
-1601 -21 0 c-18 0 -530 51 -1664 165 -401 40 -406 40 -446 19 -46 -24 -59
-66 -59 -199 l0 -115 -215 0 -215 0 0 131 0 131 -34 34 c-27 27 -42 34 -73 34
-21 0 -487 -45 -1036 -100 -548 -55 -1005 -100 -1017 -100 l-20 0 0 1573 c0
1046 -4 1584 -10 1609 -15 51 -52 78 -107 78 -38 0 -50 -5 -79 -34z"/>
<path d="M4676 4920 c-69 -21 -103 -93 -73 -156 32 -65 30 -65 498 -62 l421 3
29 33 c34 37 39 88 13 131 -34 57 -26 56 -459 58 -220 1 -413 -2 -429 -7z"/>
<path d="M4323 4474 c-31 -16 -63 -66 -63 -99 0 -34 32 -84 65 -99 29 -14 104
-16 600 -16 621 0 608 -1 640 60 30 57 10 127 -45 155 -25 13 -109 15 -597 15
-495 0 -572 -2 -600 -16z"/>
<path d="M4313 4031 c-45 -28 -63 -88 -40 -136 35 -73 4 -70 648 -70 624 0
609 -1 642 55 27 44 22 94 -12 132 l-29 33 -589 3 c-569 2 -589 2 -620 -17z"/>
<path d="M4375 3606 c-92 -29 -159 -90 -204 -186 -22 -46 -26 -69 -26 -140 0
-140 16 -165 272 -422 119 -119 229 -222 245 -229 62 -26 79 -14 324 234 247
248 264 272 279 384 13 99 -43 238 -118 296 -79 60 -116 72 -223 72 -94 0
-105 -2 -163 -32 l-63 -33 -30 21 c-65 47 -204 63 -293 35z m140 -206 c7 0 43
-27 79 -60 60 -54 71 -60 110 -60 38 0 50 6 104 54 34 30 70 57 82 61 57 18
132 -27 145 -86 13 -59 -1 -81 -170 -249 l-165 -165 -156 155 c-162 162 -184
190 -184 238 0 59 81 132 128 116 8 -2 20 -4 27 -4z"/>
<path d="M5204 2836 c-43 -19 -64 -53 -64 -101 0 -47 19 -79 60 -100 41 -21
279 -21 320 0 80 42 77 166 -5 201 -46 19 -267 19 -311 0z"/>
<path d="M2227 1309 c-206 -50 -316 -269 -231 -460 34 -76 113 -150 186 -176
49 -17 94 -18 558 -18 l505 0 63 29 c255 118 258 473 4 598 l-67 33 -490 2
c-269 1 -507 -3 -528 -8z m999 -238 c63 -38 66 -124 6 -171 -24 -19 -43 -20
-498 -20 l-474 0 -32 29 c-28 25 -33 36 -33 74 0 47 21 82 60 98 11 4 227 8
480 8 437 1 462 0 491 -18z"/>
</g>
</svg>
